<mxfile host="app.diagrams.net" modified="2021-06-05T17:25:46.864Z" agent="5.0 (Macintosh; Intel Mac OS X 10_13_6) AppleWebKit/537.36 (KHTML, like Gecko) Chrome/91.0.4472.77 Safari/537.36" etag="2mjJGCzmhb4R1QaDG8Ob" version="14.7.6" type="github" pages="2">
  <diagram id="jh6TqKwbCbA7gVTPyM8D" name="Page-1">
    <mxGraphModel dx="1520" dy="1032" grid="0" gridSize="10" guides="1" tooltips="1" connect="1" arrows="1" fold="1" page="1" pageScale="1" pageWidth="4827" pageHeight="4869" background="#000000" math="0" shadow="0">
      <root>
        <mxCell id="0" />
        <mxCell id="1" parent="0" />
        <mxCell id="5jwChbhLyahyvmCUTXbI-201" style="edgeStyle=none;rounded=0;orthogonalLoop=1;jettySize=auto;html=1;fontSize=20;fontColor=#FFFFFF;endArrow=block;endFill=1;strokeColor=#FFFFFF;strokeWidth=3;" edge="1" parent="1" source="5jwChbhLyahyvmCUTXbI-161" target="5jwChbhLyahyvmCUTXbI-164">
          <mxGeometry relative="1" as="geometry" />
        </mxCell>
        <mxCell id="5jwChbhLyahyvmCUTXbI-204" style="edgeStyle=elbowEdgeStyle;rounded=0;orthogonalLoop=1;jettySize=auto;html=1;entryX=0;entryY=0.5;entryDx=0;entryDy=0;fontSize=20;fontColor=#FFFFFF;endArrow=block;endFill=1;strokeColor=#FFFFFF;strokeWidth=3;" edge="1" parent="1" source="5jwChbhLyahyvmCUTXbI-161" target="5jwChbhLyahyvmCUTXbI-172">
          <mxGeometry relative="1" as="geometry">
            <Array as="points">
              <mxPoint x="1203" y="2524" />
            </Array>
          </mxGeometry>
        </mxCell>
        <mxCell id="5jwChbhLyahyvmCUTXbI-161" value="&lt;font color=&quot;#ffffff&quot; style=&quot;font-size: 20px;&quot;&gt;ReportComponent&lt;/font&gt;" style="html=1;strokeColor=#FFFFFF;strokeWidth=3;fillColor=none;fontSize=20;" vertex="1" parent="1">
          <mxGeometry x="1439" y="2345" width="180" height="53" as="geometry" />
        </mxCell>
        <mxCell id="5jwChbhLyahyvmCUTXbI-180" style="edgeStyle=none;rounded=0;orthogonalLoop=1;jettySize=auto;html=1;fontSize=20;fontColor=#FFFFFF;endArrow=block;endFill=1;strokeColor=#FFFFFF;strokeWidth=3;" edge="1" parent="1" source="5jwChbhLyahyvmCUTXbI-162" target="5jwChbhLyahyvmCUTXbI-161">
          <mxGeometry relative="1" as="geometry" />
        </mxCell>
        <mxCell id="5jwChbhLyahyvmCUTXbI-162" value="&lt;font color=&quot;#ffffff&quot; style=&quot;font-size: 20px;&quot;&gt;Report&lt;/font&gt;" style="html=1;strokeColor=#FFFFFF;strokeWidth=3;fillColor=none;fontSize=20;" vertex="1" parent="1">
          <mxGeometry x="1682" y="2345" width="160" height="52" as="geometry" />
        </mxCell>
        <mxCell id="5jwChbhLyahyvmCUTXbI-182" style="edgeStyle=none;rounded=0;orthogonalLoop=1;jettySize=auto;html=1;fontSize=20;fontColor=#FFFFFF;endArrow=block;endFill=1;strokeColor=#FFFFFF;strokeWidth=3;" edge="1" parent="1" source="5jwChbhLyahyvmCUTXbI-163" target="5jwChbhLyahyvmCUTXbI-164">
          <mxGeometry relative="1" as="geometry" />
        </mxCell>
        <mxCell id="5jwChbhLyahyvmCUTXbI-202" style="edgeStyle=none;rounded=0;orthogonalLoop=1;jettySize=auto;html=1;entryX=0.5;entryY=0;entryDx=0;entryDy=0;fontSize=20;fontColor=#FFFFFF;endArrow=block;endFill=1;strokeColor=#FFFFFF;strokeWidth=3;" edge="1" parent="1" source="5jwChbhLyahyvmCUTXbI-163" target="5jwChbhLyahyvmCUTXbI-172">
          <mxGeometry relative="1" as="geometry" />
        </mxCell>
        <mxCell id="5jwChbhLyahyvmCUTXbI-163" value="&lt;span style=&quot;color: rgb(255, 255, 255); font-size: 20px;&quot;&gt;&lt;font style=&quot;font-size: 20px;&quot;&gt;AnalysisQuery&lt;/font&gt;&lt;/span&gt;" style="html=1;strokeColor=#FFFFFF;strokeWidth=3;fillColor=none;fontSize=20;" vertex="1" parent="1">
          <mxGeometry x="1238" y="2453" width="160" height="52" as="geometry" />
        </mxCell>
        <mxCell id="5jwChbhLyahyvmCUTXbI-194" style="edgeStyle=none;rounded=0;orthogonalLoop=1;jettySize=auto;html=1;entryX=0;entryY=0.5;entryDx=0;entryDy=0;fontSize=20;fontColor=#FFFFFF;endArrow=block;endFill=1;strokeColor=#FFFFFF;strokeWidth=3;" edge="1" parent="1" source="5jwChbhLyahyvmCUTXbI-164" target="5jwChbhLyahyvmCUTXbI-167">
          <mxGeometry relative="1" as="geometry" />
        </mxCell>
        <mxCell id="5jwChbhLyahyvmCUTXbI-164" value="&lt;font color=&quot;#ffffff&quot; style=&quot;font-size: 20px;&quot;&gt;&lt;span style=&quot;font-size: 20px;&quot;&gt;Analysis&lt;/span&gt;&lt;/font&gt;" style="html=1;strokeColor=#FFFFFF;strokeWidth=3;fillColor=none;fontSize=20;" vertex="1" parent="1">
          <mxGeometry x="1449" y="2451" width="160" height="52" as="geometry" />
        </mxCell>
        <mxCell id="5jwChbhLyahyvmCUTXbI-178" style="edgeStyle=none;rounded=0;orthogonalLoop=1;jettySize=auto;html=1;entryX=0.5;entryY=1;entryDx=0;entryDy=0;fontSize=20;fontColor=#FFFFFF;endArrow=block;endFill=0;strokeColor=#FFFFFF;strokeWidth=3;exitX=0.5;exitY=0;exitDx=0;exitDy=0;" edge="1" parent="1" source="5jwChbhLyahyvmCUTXbI-165" target="5jwChbhLyahyvmCUTXbI-164">
          <mxGeometry relative="1" as="geometry" />
        </mxCell>
        <mxCell id="5jwChbhLyahyvmCUTXbI-165" value="&lt;font color=&quot;#ffffff&quot; style=&quot;font-size: 20px;&quot;&gt;&lt;span style=&quot;font-size: 20px;&quot;&gt;EventAnalysis&lt;/span&gt;&lt;/font&gt;" style="html=1;strokeColor=#FFFFFF;strokeWidth=3;fillColor=none;fontSize=20;" vertex="1" parent="1">
          <mxGeometry x="1390" y="2554" width="160" height="52" as="geometry" />
        </mxCell>
        <mxCell id="5jwChbhLyahyvmCUTXbI-179" style="edgeStyle=none;rounded=0;orthogonalLoop=1;jettySize=auto;html=1;fontSize=20;fontColor=#FFFFFF;endArrow=block;endFill=0;strokeColor=#FFFFFF;strokeWidth=3;entryX=0.5;entryY=1;entryDx=0;entryDy=0;" edge="1" parent="1" source="5jwChbhLyahyvmCUTXbI-166" target="5jwChbhLyahyvmCUTXbI-164">
          <mxGeometry relative="1" as="geometry" />
        </mxCell>
        <mxCell id="5jwChbhLyahyvmCUTXbI-166" value="&lt;font color=&quot;#ffffff&quot; style=&quot;font-size: 20px;&quot;&gt;&lt;span style=&quot;font-size: 20px;&quot;&gt;FunnelAnlysis&lt;/span&gt;&lt;/font&gt;" style="html=1;strokeColor=#FFFFFF;strokeWidth=3;fillColor=none;fontSize=20;" vertex="1" parent="1">
          <mxGeometry x="1569" y="2554" width="160" height="52" as="geometry" />
        </mxCell>
        <mxCell id="5jwChbhLyahyvmCUTXbI-167" value="&lt;span style=&quot;color: rgb(255, 255, 255); font-style: italic; font-size: 20px;&quot;&gt;&lt;font style=&quot;font-size: 20px;&quot;&gt;AbstractMeasure&lt;/font&gt;&lt;/span&gt;" style="html=1;strokeColor=#FFFFFF;strokeWidth=3;fillColor=none;fontSize=20;" vertex="1" parent="1">
          <mxGeometry x="1933" y="2445" width="160" height="52" as="geometry" />
        </mxCell>
        <mxCell id="5jwChbhLyahyvmCUTXbI-174" style="rounded=0;orthogonalLoop=1;jettySize=auto;html=1;entryX=0.5;entryY=1;entryDx=0;entryDy=0;fontSize=20;strokeWidth=3;exitX=0.5;exitY=0;exitDx=0;exitDy=0;fontColor=#FFFFFF;strokeColor=#FFFFFF;endArrow=block;endFill=0;" edge="1" parent="1" source="5jwChbhLyahyvmCUTXbI-168" target="5jwChbhLyahyvmCUTXbI-167">
          <mxGeometry relative="1" as="geometry" />
        </mxCell>
        <mxCell id="5jwChbhLyahyvmCUTXbI-168" value="&lt;span style=&quot;color: rgb(255, 255, 255); font-size: 20px;&quot;&gt;&lt;font style=&quot;font-size: 20px;&quot;&gt;AtomicMeasure&lt;/font&gt;&lt;/span&gt;" style="html=1;strokeColor=#FFFFFF;strokeWidth=3;fillColor=none;fontSize=20;" vertex="1" parent="1">
          <mxGeometry x="1737" y="2554" width="160" height="52" as="geometry" />
        </mxCell>
        <mxCell id="5jwChbhLyahyvmCUTXbI-175" style="edgeStyle=none;rounded=0;orthogonalLoop=1;jettySize=auto;html=1;fontSize=20;fontColor=#FFFFFF;endArrow=block;endFill=0;strokeColor=#FFFFFF;strokeWidth=3;" edge="1" parent="1" source="5jwChbhLyahyvmCUTXbI-169" target="5jwChbhLyahyvmCUTXbI-167">
          <mxGeometry relative="1" as="geometry" />
        </mxCell>
        <mxCell id="5jwChbhLyahyvmCUTXbI-199" style="edgeStyle=none;rounded=0;orthogonalLoop=1;jettySize=auto;html=1;fontSize=20;fontColor=#FFFFFF;endArrow=block;endFill=1;strokeColor=#FFFFFF;strokeWidth=3;" edge="1" parent="1" source="5jwChbhLyahyvmCUTXbI-169" target="5jwChbhLyahyvmCUTXbI-168">
          <mxGeometry relative="1" as="geometry">
            <mxPoint x="1902.520417312096" y="2580" as="targetPoint" />
          </mxGeometry>
        </mxCell>
        <mxCell id="5jwChbhLyahyvmCUTXbI-169" value="&lt;span style=&quot;color: rgb(255, 255, 255); font-size: 20px;&quot;&gt;&lt;font style=&quot;font-size: 20px;&quot;&gt;DerivedMeasure&lt;/font&gt;&lt;/span&gt;" style="html=1;strokeColor=#FFFFFF;strokeWidth=3;fillColor=none;fontSize=20;" vertex="1" parent="1">
          <mxGeometry x="1933" y="2554" width="160" height="52" as="geometry" />
        </mxCell>
        <mxCell id="5jwChbhLyahyvmCUTXbI-176" style="edgeStyle=none;rounded=0;orthogonalLoop=1;jettySize=auto;html=1;entryX=0.5;entryY=1;entryDx=0;entryDy=0;fontSize=20;fontColor=#FFFFFF;endArrow=block;endFill=0;strokeColor=#FFFFFF;strokeWidth=3;exitX=0.5;exitY=0;exitDx=0;exitDy=0;" edge="1" parent="1" source="5jwChbhLyahyvmCUTXbI-170" target="5jwChbhLyahyvmCUTXbI-167">
          <mxGeometry relative="1" as="geometry" />
        </mxCell>
        <mxCell id="5jwChbhLyahyvmCUTXbI-198" style="rounded=0;orthogonalLoop=1;jettySize=auto;html=1;entryX=1;entryY=0.5;entryDx=0;entryDy=0;fontSize=20;fontColor=#FFFFFF;endArrow=block;endFill=1;strokeColor=#FFFFFF;strokeWidth=3;" edge="1" parent="1" source="5jwChbhLyahyvmCUTXbI-170" target="5jwChbhLyahyvmCUTXbI-169">
          <mxGeometry relative="1" as="geometry" />
        </mxCell>
        <mxCell id="5jwChbhLyahyvmCUTXbI-170" value="&lt;span style=&quot;color: rgb(255, 255, 255); font-size: 20px;&quot;&gt;&lt;font style=&quot;font-size: 20px;&quot;&gt;CombineMeasure&lt;/font&gt;&lt;/span&gt;" style="html=1;strokeColor=#FFFFFF;strokeWidth=3;fillColor=none;fontSize=20;" vertex="1" parent="1">
          <mxGeometry x="2125" y="2554" width="160" height="52" as="geometry" />
        </mxCell>
        <mxCell id="5jwChbhLyahyvmCUTXbI-186" style="edgeStyle=none;rounded=0;orthogonalLoop=1;jettySize=auto;html=1;entryX=1;entryY=0.5;entryDx=0;entryDy=0;fontSize=20;fontColor=#FFFFFF;endArrow=block;endFill=1;strokeColor=#FFFFFF;strokeWidth=3;" edge="1" parent="1" source="5jwChbhLyahyvmCUTXbI-171" target="5jwChbhLyahyvmCUTXbI-172">
          <mxGeometry relative="1" as="geometry" />
        </mxCell>
        <mxCell id="5jwChbhLyahyvmCUTXbI-187" style="edgeStyle=none;rounded=0;orthogonalLoop=1;jettySize=auto;html=1;entryX=0.5;entryY=1;entryDx=0;entryDy=0;fontSize=20;fontColor=#FFFFFF;endArrow=block;endFill=1;strokeColor=#FFFFFF;strokeWidth=3;" edge="1" parent="1" source="5jwChbhLyahyvmCUTXbI-171" target="5jwChbhLyahyvmCUTXbI-168">
          <mxGeometry relative="1" as="geometry" />
        </mxCell>
        <mxCell id="5jwChbhLyahyvmCUTXbI-171" value="&lt;font color=&quot;#ffffff&quot; style=&quot;font-size: 20px;&quot;&gt;&lt;span style=&quot;font-size: 20px;&quot;&gt;Event&lt;/span&gt;&lt;/font&gt;" style="html=1;strokeColor=#FFFFFF;strokeWidth=3;fillColor=none;fontSize=20;" vertex="1" parent="1">
          <mxGeometry x="1737" y="2646" width="160" height="52" as="geometry" />
        </mxCell>
        <mxCell id="5jwChbhLyahyvmCUTXbI-172" value="&lt;font color=&quot;#ffffff&quot; style=&quot;font-size: 20px;&quot;&gt;&lt;span style=&quot;font-size: 20px;&quot;&gt;Dim&lt;/span&gt;&lt;/font&gt;" style="html=1;strokeColor=#FFFFFF;strokeWidth=3;fillColor=none;fontSize=20;" vertex="1" parent="1">
          <mxGeometry x="1238" y="2644" width="160" height="52" as="geometry" />
        </mxCell>
      </root>
    </mxGraphModel>
  </diagram>
  <diagram id="kapp5iF5mblhU-gvpFe1" name="Page-2">
    <mxGraphModel dx="894" dy="607" grid="0" gridSize="10" guides="1" tooltips="1" connect="1" arrows="1" fold="1" page="1" pageScale="1" pageWidth="4827" pageHeight="4869" background="#000000" math="0" shadow="0">
      <root>
        <mxCell id="EK0KOEgqzdzAbVFOYVTn-0" />
        <mxCell id="EK0KOEgqzdzAbVFOYVTn-1" parent="EK0KOEgqzdzAbVFOYVTn-0" />
        <mxCell id="EK0KOEgqzdzAbVFOYVTn-16" value="&lt;span style=&quot;color: rgb(255, 255, 255); font-style: italic; font-size: 20px;&quot;&gt;&lt;font style=&quot;font-size: 20px;&quot;&gt;AbstractMeasure&lt;/font&gt;&lt;/span&gt;" style="html=1;strokeColor=#FFFFFF;strokeWidth=3;fillColor=none;fontSize=20;" vertex="1" parent="EK0KOEgqzdzAbVFOYVTn-1">
          <mxGeometry x="1933" y="2445" width="160" height="52" as="geometry" />
        </mxCell>
        <mxCell id="EK0KOEgqzdzAbVFOYVTn-17" style="rounded=0;orthogonalLoop=1;jettySize=auto;html=1;entryX=0.5;entryY=1;entryDx=0;entryDy=0;fontSize=20;strokeWidth=3;exitX=0.5;exitY=0;exitDx=0;exitDy=0;fontColor=#FFFFFF;strokeColor=#FFFFFF;endArrow=block;endFill=0;" edge="1" parent="EK0KOEgqzdzAbVFOYVTn-1" source="EK0KOEgqzdzAbVFOYVTn-18" target="EK0KOEgqzdzAbVFOYVTn-16">
          <mxGeometry relative="1" as="geometry" />
        </mxCell>
        <mxCell id="EK0KOEgqzdzAbVFOYVTn-18" value="&lt;span style=&quot;color: rgb(255, 255, 255); font-size: 20px;&quot;&gt;&lt;font style=&quot;font-size: 20px;&quot;&gt;AtomicMeasure&lt;/font&gt;&lt;/span&gt;" style="html=1;strokeColor=#FFFFFF;strokeWidth=3;fillColor=none;fontSize=20;" vertex="1" parent="EK0KOEgqzdzAbVFOYVTn-1">
          <mxGeometry x="1714" y="2554" width="160" height="52" as="geometry" />
        </mxCell>
        <mxCell id="EK0KOEgqzdzAbVFOYVTn-19" style="edgeStyle=none;rounded=0;orthogonalLoop=1;jettySize=auto;html=1;fontSize=20;fontColor=#FFFFFF;endArrow=block;endFill=0;strokeColor=#FFFFFF;strokeWidth=3;" edge="1" parent="EK0KOEgqzdzAbVFOYVTn-1" source="EK0KOEgqzdzAbVFOYVTn-21" target="EK0KOEgqzdzAbVFOYVTn-16">
          <mxGeometry relative="1" as="geometry" />
        </mxCell>
        <mxCell id="EK0KOEgqzdzAbVFOYVTn-20" style="edgeStyle=none;rounded=0;orthogonalLoop=1;jettySize=auto;html=1;fontSize=20;fontColor=#FFFFFF;endArrow=block;endFill=1;strokeColor=#FFFFFF;strokeWidth=3;" edge="1" parent="EK0KOEgqzdzAbVFOYVTn-1" source="EK0KOEgqzdzAbVFOYVTn-21" target="EK0KOEgqzdzAbVFOYVTn-18">
          <mxGeometry relative="1" as="geometry">
            <mxPoint x="1902.520417312096" y="2580" as="targetPoint" />
          </mxGeometry>
        </mxCell>
        <mxCell id="EK0KOEgqzdzAbVFOYVTn-21" value="&lt;span style=&quot;color: rgb(255, 255, 255); font-size: 20px;&quot;&gt;&lt;font style=&quot;font-size: 20px;&quot;&gt;DerivedMeasure&lt;/font&gt;&lt;/span&gt;" style="html=1;strokeColor=#FFFFFF;strokeWidth=3;fillColor=none;fontSize=20;" vertex="1" parent="EK0KOEgqzdzAbVFOYVTn-1">
          <mxGeometry x="1933" y="2554" width="160" height="52" as="geometry" />
        </mxCell>
        <mxCell id="EK0KOEgqzdzAbVFOYVTn-22" style="edgeStyle=none;rounded=0;orthogonalLoop=1;jettySize=auto;html=1;entryX=0.5;entryY=1;entryDx=0;entryDy=0;fontSize=20;fontColor=#FFFFFF;endArrow=block;endFill=0;strokeColor=#FFFFFF;strokeWidth=3;exitX=0.5;exitY=0;exitDx=0;exitDy=0;" edge="1" parent="EK0KOEgqzdzAbVFOYVTn-1" source="EK0KOEgqzdzAbVFOYVTn-24" target="EK0KOEgqzdzAbVFOYVTn-16">
          <mxGeometry relative="1" as="geometry" />
        </mxCell>
        <mxCell id="EK0KOEgqzdzAbVFOYVTn-23" style="rounded=0;orthogonalLoop=1;jettySize=auto;html=1;entryX=1;entryY=0.5;entryDx=0;entryDy=0;fontSize=20;fontColor=#FFFFFF;endArrow=block;endFill=1;strokeColor=#FFFFFF;strokeWidth=3;" edge="1" parent="EK0KOEgqzdzAbVFOYVTn-1" source="EK0KOEgqzdzAbVFOYVTn-24" target="EK0KOEgqzdzAbVFOYVTn-21">
          <mxGeometry relative="1" as="geometry" />
        </mxCell>
        <mxCell id="EK0KOEgqzdzAbVFOYVTn-24" value="&lt;span style=&quot;color: rgb(255, 255, 255); font-size: 20px;&quot;&gt;&lt;font style=&quot;font-size: 20px;&quot;&gt;CombineMeasure&lt;/font&gt;&lt;/span&gt;" style="html=1;strokeColor=#FFFFFF;strokeWidth=3;fillColor=none;fontSize=20;" vertex="1" parent="EK0KOEgqzdzAbVFOYVTn-1">
          <mxGeometry x="2148" y="2554" width="160" height="52" as="geometry" />
        </mxCell>
      </root>
    </mxGraphModel>
  </diagram>
</mxfile>
